<svg width="249" height="310" viewBox="0 0 249 310" fill="none" xmlns="http://www.w3.org/2000/svg">
<rect x="34" y="3" width="180" height="243" stroke="#C20000" stroke-width="6"/>
<path d="M108.281 147L68.7305 94.4854L108.281 41.9707H120L79.6436 94.4854L120 147H108.281ZM57.0117 147V41.9707H66.46V147H57.0117Z" fill="#C20000"/>
<path d="M192.58 192.684C192.58 196.248 191.896 199.593 190.529 202.718C189.211 205.843 187.38 208.577 185.036 210.921C182.692 213.265 179.958 215.12 176.833 216.487C173.708 217.806 170.363 218.465 166.799 218.465H159.328C155.764 218.465 152.395 217.806 149.221 216.487C146.096 215.12 143.361 213.265 141.018 210.921C138.674 208.577 136.818 205.843 135.451 202.718C134.133 199.593 133.474 196.248 133.474 192.684V136.287C133.474 132.723 134.133 129.378 135.451 126.253C136.818 123.128 138.674 120.394 141.018 118.05C143.361 115.706 146.096 113.875 149.221 112.557C152.395 111.189 155.764 110.506 159.328 110.506H166.799C170.363 110.506 173.708 111.189 176.833 112.557C179.958 113.875 182.692 115.706 185.036 118.05C187.38 120.394 189.211 123.128 190.529 126.253C191.896 129.378 192.58 132.723 192.58 136.287V140.535L183.132 142V136.287C183.132 133.943 182.692 131.771 181.813 129.769C180.935 127.718 179.738 125.936 178.225 124.422C176.711 122.908 174.929 121.712 172.878 120.833C170.876 119.954 168.703 119.515 166.359 119.515H159.768C157.424 119.515 155.227 119.954 153.176 120.833C151.174 121.712 149.392 122.908 147.829 124.422C146.315 125.936 145.119 127.718 144.24 129.769C143.361 131.771 142.922 133.943 142.922 136.287V192.684C142.922 195.027 143.361 197.225 144.24 199.275C145.119 201.277 146.315 203.06 147.829 204.622C149.392 206.136 151.174 207.332 153.176 208.211C155.227 209.09 157.424 209.529 159.768 209.529H166.359C168.703 209.529 170.876 209.09 172.878 208.211C174.929 207.332 176.711 206.136 178.225 204.622C179.738 203.06 180.935 201.277 181.813 199.275C182.692 197.225 183.132 195.027 183.132 192.684V186.971L192.58 188.509V192.684Z" fill="#C20000"/>
<path d="M41.248 298.146C40.4017 298.146 39.7995 297.886 39.4414 297.365C39.1159 296.812 38.9531 296.145 38.9531 295.363V262.648C38.9531 261.867 39.1159 261.216 39.4414 260.695C39.7995 260.142 40.4017 259.865 41.248 259.865C42.0944 259.865 42.6803 260.142 43.0059 260.695C43.3639 261.216 43.543 261.867 43.543 262.648V278.566L55.4082 261.135C55.6361 260.777 55.9128 260.484 56.2383 260.256C56.5964 259.995 56.987 259.865 57.4102 259.865C58.8424 259.865 59.5586 260.549 59.5586 261.916C59.5586 262.176 59.4772 262.453 59.3145 262.746C59.1842 263.007 59.0378 263.234 58.875 263.43L50.623 275.1L60.2422 294.436C60.3724 294.663 60.4701 294.924 60.5352 295.217C60.6328 295.477 60.6816 295.738 60.6816 295.998C60.6816 296.714 60.4701 297.251 60.0469 297.609C59.6562 297.967 59.1029 298.146 58.3867 298.146C57.8008 298.146 57.3288 297.967 56.9707 297.609C56.6126 297.251 56.3034 296.828 56.043 296.34L47.7422 279.152L43.543 285.061V295.363C43.543 296.145 43.3639 296.812 43.0059 297.365C42.6803 297.886 42.0944 298.146 41.248 298.146ZM75.0371 298.195C72.4329 298.195 70.3171 297.561 68.6895 296.291C67.0618 295.021 65.8737 293.361 65.125 291.311C64.3763 289.26 64.002 287.079 64.002 284.768C64.002 283.075 64.181 281.431 64.5391 279.836C64.9297 278.241 65.5319 276.809 66.3457 275.539C67.1921 274.237 68.2826 273.212 69.6172 272.463C70.9844 271.714 72.6283 271.34 74.5488 271.34C76.86 271.34 78.7806 271.828 80.3105 272.805C81.873 273.781 83.0449 275.132 83.8262 276.857C84.6074 278.55 84.998 280.503 84.998 282.717C84.998 284.768 83.9401 285.793 81.8242 285.793H68.543C68.543 287.258 68.7057 288.658 69.0312 289.992C69.3568 291.294 69.9753 292.368 70.8867 293.215C71.8307 294.029 73.1654 294.436 74.8906 294.436C76.1927 294.436 77.1855 294.24 77.8691 293.85C78.5853 293.426 79.1061 292.922 79.4316 292.336C79.7897 291.75 80.0827 291.164 80.3105 290.578C80.571 289.992 80.8639 289.504 81.1895 289.113C81.5475 288.69 82.0846 288.479 82.8008 288.479C83.4518 288.479 83.9727 288.641 84.3633 288.967C84.7539 289.292 84.9492 289.797 84.9492 290.48C84.9492 291.49 84.6725 292.434 84.1191 293.312C83.5983 294.159 82.9798 294.924 82.2637 295.607C81.2871 296.519 80.1641 297.186 78.8945 297.609C77.6576 298 76.3717 298.195 75.0371 298.195ZM68.6895 281.936H79.7734C80.1641 281.936 80.3594 281.757 80.3594 281.398C80.3594 279.641 79.8548 278.16 78.8457 276.955C77.8366 275.718 76.4206 275.1 74.5977 275.1C73.2305 275.1 72.1237 275.425 71.2773 276.076C70.4635 276.695 69.8613 277.525 69.4707 278.566C69.0801 279.608 68.8197 280.731 68.6895 281.936ZM99.5 298.146C97.7422 298.146 96.6029 297.349 96.082 295.754L88.7578 274.514C88.6927 274.318 88.6276 274.123 88.5625 273.928C88.4974 273.7 88.4648 273.472 88.4648 273.244C88.4648 272.561 88.6602 272.072 89.0508 271.779C89.474 271.486 89.9948 271.34 90.6133 271.34C91.2643 271.34 91.7526 271.551 92.0781 271.975C92.4362 272.365 92.7129 272.837 92.9082 273.391L99.5 292.922L106.189 273.244C106.352 272.691 106.613 272.235 106.971 271.877C107.329 271.519 107.817 271.34 108.436 271.34C109.087 271.34 109.607 271.486 109.998 271.779C110.389 272.072 110.584 272.561 110.584 273.244C110.584 273.407 110.405 274.009 110.047 275.051C109.721 276.092 109.282 277.411 108.729 279.006C108.208 280.568 107.638 282.245 107.02 284.035C106.434 285.793 105.848 287.502 105.262 289.162C104.676 290.79 104.171 292.206 103.748 293.41C103.325 294.582 103.048 295.363 102.918 295.754C102.332 297.349 101.193 298.146 99.5 298.146ZM124.5 266.164C122.384 266.164 121.326 265.106 121.326 262.99C121.326 260.874 122.4 259.816 124.549 259.816C125.395 259.816 126.128 260.142 126.746 260.793C127.365 261.411 127.674 262.144 127.674 262.99C127.674 265.106 126.616 266.164 124.5 266.164ZM124.451 298.146C123.605 298.146 123.003 297.886 122.645 297.365C122.319 296.844 122.156 296.193 122.156 295.412V274.367C122.156 273.586 122.319 272.935 122.645 272.414C123.003 271.861 123.605 271.584 124.451 271.584C125.298 271.584 125.883 271.861 126.209 272.414C126.567 272.935 126.746 273.586 126.746 274.367V295.412C126.746 296.193 126.567 296.844 126.209 297.365C125.883 297.886 125.298 298.146 124.451 298.146ZM141.443 298.146C140.63 298.146 140.06 297.886 139.734 297.365C139.409 296.844 139.246 296.21 139.246 295.461V273.83C139.246 273.081 139.409 272.479 139.734 272.023C140.06 271.568 140.63 271.34 141.443 271.34C142.387 271.34 143.006 271.6 143.299 272.121C143.592 272.642 143.722 273.277 143.689 274.025C143.689 274.742 143.689 275.425 143.689 276.076C144.731 274.676 145.936 273.537 147.303 272.658C148.702 271.779 150.298 271.34 152.088 271.34C154.855 271.34 156.824 272.17 157.996 273.83C159.168 275.458 159.754 277.557 159.754 280.129V295.461C159.754 296.242 159.591 296.893 159.266 297.414C158.94 297.902 158.354 298.146 157.508 298.146C156.694 298.146 156.124 297.886 155.799 297.365C155.473 296.844 155.311 296.21 155.311 295.461V280.91C155.311 279.934 155.197 279.022 154.969 278.176C154.741 277.329 154.334 276.646 153.748 276.125C153.162 275.572 152.299 275.295 151.16 275.295C149.077 275.295 147.319 276.092 145.887 277.688C145.333 278.306 144.829 279.006 144.373 279.787C143.917 280.536 143.689 281.35 143.689 282.229V295.461C143.689 296.242 143.527 296.893 143.201 297.414C142.876 297.902 142.29 298.146 141.443 298.146ZM166.297 298.195C165.451 298.195 164.848 297.935 164.49 297.414C164.165 296.861 164.002 296.193 164.002 295.412V262.697C164.002 261.916 164.165 261.249 164.49 260.695C164.816 260.142 165.418 259.865 166.297 259.865C167.176 259.865 167.778 260.142 168.104 260.695C168.429 261.249 168.592 261.916 168.592 262.697V276.418H180.408V262.697C180.408 261.916 180.571 261.249 180.896 260.695C181.222 260.142 181.824 259.865 182.703 259.865C183.582 259.865 184.184 260.142 184.51 260.695C184.835 261.249 184.998 261.916 184.998 262.697V295.412C184.998 296.193 184.819 296.861 184.461 297.414C184.135 297.935 183.549 298.195 182.703 298.195C181.857 298.195 181.255 297.935 180.896 297.414C180.571 296.861 180.408 296.193 180.408 295.412V280.715H168.592V295.412C168.592 296.193 168.413 296.861 168.055 297.414C167.729 297.935 167.143 298.195 166.297 298.195ZM200.232 298.146C198.214 298.146 196.505 297.756 195.105 296.975C193.738 296.161 192.615 295.087 191.736 293.752C190.89 292.417 190.239 290.92 189.783 289.26C189.36 287.6 189.067 285.907 188.904 284.182C188.742 282.424 188.66 280.764 188.66 279.201C188.66 277.606 188.742 275.93 188.904 274.172C189.067 272.382 189.376 270.64 189.832 268.947C190.288 267.255 190.939 265.725 191.785 264.357C192.664 262.99 193.803 261.9 195.203 261.086C196.603 260.272 198.344 259.865 200.428 259.865C202.153 259.865 203.715 260.321 205.115 261.232C206.548 262.111 207.671 263.283 208.484 264.748C209.331 266.18 209.754 267.759 209.754 269.484C209.754 270.917 209.021 271.633 207.557 271.633C206.775 271.633 206.206 271.389 205.848 270.9C205.49 270.38 205.197 269.761 204.969 269.045C204.773 268.296 204.529 267.564 204.236 266.848C203.943 266.132 203.488 265.529 202.869 265.041C202.283 264.52 201.388 264.26 200.184 264.26C198.882 264.26 197.807 264.634 196.961 265.383C196.147 266.132 195.496 267.108 195.008 268.312C194.52 269.517 194.161 270.819 193.934 272.219C193.738 273.586 193.608 274.921 193.543 276.223C193.478 277.492 193.445 278.566 193.445 279.445C193.445 280.324 193.478 281.382 193.543 282.619C193.608 283.824 193.738 285.077 193.934 286.379C194.161 287.648 194.52 288.853 195.008 289.992C195.496 291.099 196.147 292.01 196.961 292.727C197.775 293.41 198.816 293.752 200.086 293.752C201.225 293.752 202.104 293.475 202.723 292.922C203.374 292.368 203.878 291.685 204.236 290.871C204.627 290.025 204.969 289.195 205.262 288.381C205.555 287.567 205.896 286.883 206.287 286.33C206.71 285.777 207.312 285.5 208.094 285.5C209.591 285.5 210.34 286.232 210.34 287.697C210.34 288.609 210.128 289.602 209.705 290.676C209.314 291.717 208.891 292.629 208.436 293.41C207.557 295.005 206.417 296.193 205.018 296.975C203.65 297.756 202.055 298.146 200.232 298.146Z" fill="black"/>
</svg>
